<?xml version="1.0" standalone="no"?>
<!DOCTYPE svg PUBLIC "-//W3C//DTD SVG 20010904//EN"
 "http://www.w3.org/TR/2001/REC-SVG-20010904/DTD/svg10.dtd">
<svg version="1.0" xmlns="http://www.w3.org/2000/svg"
 width="640.000000pt" height="588.000000pt" viewBox="0 0 640.000000 588.000000"
 preserveAspectRatio="xMidYMid meet">

<g transform="translate(0.000000,588.000000) scale(0.100000,-0.100000)"
fill="#000000" stroke="none">
<path d="M2708 4925 c-262 -50 -490 -171 -632 -336 -51 -60 -114 -168 -138
-240 -11 -34 -30 -67 -45 -79 -38 -30 -111 -127 -143 -190 -84 -166 -124 -402
-109 -634 21 -309 140 -570 475 -1041 31 -44 77 -122 102 -174 l45 -94 -12
-128 c-11 -111 -35 -256 -43 -265 -2 -1 -75 -17 -163 -34 -284 -57 -623 -166
-829 -266 -206 -100 -335 -274 -415 -559 -17 -60 -54 -222 -82 -360 -43 -215
-96 -448 -115 -507 -5 -17 106 -18 2240 -18 l2244 0 -38 148 c-90 342 -235
707 -352 882 -97 145 -406 317 -832 465 l-150 52 39 13 c29 10 76 49 171 144
200 201 293 336 353 515 51 151 53 167 61 456 7 270 9 286 43 440 33 151 47
233 62 366 l6 56 69 5 c56 4 81 12 126 39 107 64 204 200 238 335 20 79 21
228 0 308 -44 173 -160 319 -314 394 -165 81 -323 105 -573 86 -243 -18 -314
-3 -557 115 -179 87 -281 111 -490 116 -119 3 -187 1 -242 -10z m1069 -833
c88 -33 160 -88 200 -149 108 -170 237 -304 344 -359 l52 -26 -6 -151 c-4
-108 -14 -202 -37 -327 -29 -157 -33 -197 -35 -390 -2 -165 -6 -232 -20 -290
-56 -236 -162 -407 -387 -626 -84 -82 -138 -126 -164 -135 -29 -10 -93 -14
-244 -13 -194 1 -211 3 -320 31 -63 17 -149 45 -191 62 -166 69 -325 191 -419
321 -63 86 -81 80 -35 -11 49 -99 103 -164 225 -274 25 -22 72 -73 105 -114
79 -97 209 -201 321 -257 86 -42 231 -85 335 -99 38 -5 50 -12 75 -45 16 -22
34 -40 40 -40 15 0 24 -56 24 -146 0 -57 -5 -80 -27 -124 -56 -108 -147 -150
-325 -150 -331 1 -654 160 -877 433 -59 73 -140 197 -180 275 -12 23 -28 42
-35 42 -8 0 -17 11 -20 25 -5 19 4 43 33 93 42 70 82 199 100 317 33 218 43
296 46 379 l4 91 -91 44 c-193 94 -308 262 -308 450 0 99 55 212 119 246 45
23 155 20 207 -5 52 -26 126 -104 156 -164 12 -25 25 -46 29 -46 13 0 22 130
16 232 -3 54 -2 98 1 98 4 0 36 -9 70 -20 148 -46 300 -12 470 106 l64 45 191
-15 c222 -17 240 -13 245 45 4 45 -26 85 -76 99 -20 5 -81 10 -134 10 l-97 0
53 74 c47 66 78 123 159 296 35 74 92 139 141 161 53 24 142 24 203 1z"/>
<path d="M4011 3484 c-34 -29 -42 -72 -16 -97 16 -16 284 -35 324 -22 50 16 6
75 -89 119 -79 37 -176 37 -219 0z"/>
<path d="M3915 3100 c4 -102 25 -182 75 -293 16 -37 30 -78 30 -92 0 -68 -67
-151 -147 -181 -24 -9 -43 -23 -43 -31 0 -12 9 -13 43 -8 122 19 217 116 217
222 0 25 -15 69 -45 128 -25 50 -45 93 -45 98 0 4 13 7 28 7 38 0 72 38 79 89
5 39 7 40 47 43 28 2 41 8 41 18 0 8 -7 16 -15 17 -8 1 -67 7 -131 13 -111 12
-116 13 -127 39 -9 21 -11 8 -7 -69z"/>
<path d="M3044 3165 c-8 -19 18 -45 43 -45 9 0 13 -14 13 -44 0 -61 29 -96 80
-96 56 0 90 42 90 110 l0 29 73 3 c56 2 72 6 72 18 0 18 -42 24 -232 35 -122
7 -133 6 -139 -10z"/>
<path d="M2113 3015 c-30 -30 -34 -39 -31 -77 3 -47 19 -53 30 -12 10 39 28
54 62 54 54 0 60 -11 67 -114 6 -101 19 -132 64 -162 34 -23 41 -12 20 32 -14
29 -16 51 -10 113 11 128 -34 201 -125 201 -35 0 -48 -6 -77 -35z"/>
<path d="M3310 2372 c0 -28 190 -132 240 -132 14 0 49 11 78 25 30 14 71 25
92 25 47 0 70 8 70 25 0 19 -124 31 -165 16 -44 -16 -91 -14 -120 5 -14 9 -51
20 -82 24 -32 5 -70 12 -85 16 -18 4 -28 2 -28 -4z"/>
</g>
</svg>
